<svg id="Capa_1" data-name="Capa 1" xmlns="http://www.w3.org/2000/svg" viewBox="0 0 480.03 352"><defs><style>.cls-1{fill:#fff;}</style></defs><title>left-arrow</title><path class="cls-1" d="M4.1,250.7l144,160A16,16,0,0,0,160,416h96a16,16,0,0,0,11.9-26.69L133.54,240,267.91,90.73A16,16,0,0,0,256,64H160a16.23,16.23,0,0,0-11.91,5.28l-144,160A16,16,0,0,0,4.1,250.7Z" transform="translate(0 -64.01)"/><path class="cls-1" d="M212.1,250.7l144,160A16,16,0,0,0,368,416h96a16,16,0,0,0,11.9-26.69L341.54,240,475.91,90.73A16,16,0,0,0,464,64H368a16.23,16.23,0,0,0-11.91,5.28l-144,160A16,16,0,0,0,212.1,250.7Z" transform="translate(0 -64.01)"/></svg>