<svg id="Layer_1" data-name="Layer 1" xmlns="http://www.w3.org/2000/svg" viewBox="0 0 512 512"><defs><style>.cls-1{fill:#d80027;}.cls-2{fill:#e3e3e3;}</style></defs><title>pause-button</title><circle class="cls-1" cx="256" cy="256" r="248.5"/><path class="cls-1" d="M256,472A215.58,215.58,0,0,1,96.42,401.55c-4.74-5.2-9.23-10.62-13.32-16.1A216,216,0,0,1,385.47,83.1c5.45,4.09,10.86,8.57,16.07,13.3A216,216,0,0,1,256,472Z"/><path class="cls-1" d="M460,256c0,112.66-91.33,204-204,204a203.65,203.65,0,0,1-150.72-66.53q-6.65-7.29-12.57-15.19A203,203,0,0,1,52,256C52,143.34,143.34,52,256,52A203.1,203.1,0,0,1,378.27,92.7c5.27,4,10.34,8.16,15.2,12.58A203.68,203.68,0,0,1,460,256Z"/><rect class="cls-2" x="175.49" y="156.95" width="60" height="198.11"/><rect class="cls-2" x="276.51" y="156.95" width="60" height="198.11"/><path d="M15,256A241,241,0,0,1,413.09,73.24a7.5,7.5,0,0,0,9.78-11.37A256.06,256.06,0,0,0,20.35,356.18a7.5,7.5,0,0,0,13.81-5.87A239.28,239.28,0,0,1,15,256Z"/><path d="M447.92,86.6a7.5,7.5,0,0,0-11.24,9.93A241,241,0,1,1,50.07,381.26a7.5,7.5,0,1,0-12.81,7.81A255.86,255.86,0,0,0,256,512,256,256,0,0,0,447.92,86.6Z"/><path d="M256,44.51C139.38,44.51,44.51,139.38,44.51,256S139.38,467.49,256,467.49,467.49,372.62,467.49,256,372.62,44.51,256,44.51Zm0,408C147.65,452.49,59.51,364.35,59.51,256S147.65,59.51,256,59.51,452.49,147.65,452.49,256,364.35,452.49,256,452.49Z"/><path d="M235.49,149.45h-60A7.5,7.5,0,0,0,168,157v198.1a7.5,7.5,0,0,0,7.5,7.5h60a7.49,7.49,0,0,0,7.5-7.5V157A7.5,7.5,0,0,0,235.49,149.45ZM228,347.55H183V164.45h45Z"/><path d="M336.51,149.45h-60A7.49,7.49,0,0,0,269,157v198.1a7.49,7.49,0,0,0,7.5,7.5h60a7.5,7.5,0,0,0,7.5-7.5v-133a7.5,7.5,0,0,0-15,0V347.55H284V164.45h45v23.46a7.5,7.5,0,0,0,15,0V157A7.5,7.5,0,0,0,336.51,149.45Z"/></svg>