<svg id="Capa_1" data-name="Capa 1" xmlns="http://www.w3.org/2000/svg" viewBox="0 0 480.03 352"><defs><style>.cls-1{fill:#fff;}</style></defs><title>right-arrow</title><path class="cls-1" d="M475.92,229.32l-144-160A16,16,0,0,0,320,64H224A16,16,0,0,0,212.11,90.7L346.48,240,212.11,389.29A16,16,0,0,0,224,416h96a16.2,16.2,0,0,0,11.9-5.28l144-160A16,16,0,0,0,475.92,229.32Z" transform="translate(0 -64.01)"/><path class="cls-1" d="M267.92,229.32l-144-160A16,16,0,0,0,112,64H16A16,16,0,0,0,4.11,90.7L138.48,240,4.11,389.29A16,16,0,0,0,16,416h96a16.2,16.2,0,0,0,11.9-5.28l144-160A16,16,0,0,0,267.92,229.32Z" transform="translate(0 -64.01)"/></svg>